# xmcd CD database file
#
# Track frame offsets:
#	150
#	33037
#	58389
#	88189
#	120228
#	150862
#	175533
#
# Disc length: 2669 seconds
#
# Revision: 0
# Processed by: cddbd v1.5.2PL0 Copyright (c) Steve Scherf et al.
# Submitted via: CDex 1.51
#
DISCID=450a6b07
DTITLE=Phil Guy - Tina Nu
DYEAR=1988
DGENRE=Blues
TTITLE0=Tina Nu
TTITLE1=Steppin´ Out
TTITLE2=Where Can I Go
TTITLE3=Professor´s Boogie
TTITLE4=Good Thing
TTITLE5=Stone Crazy
TTITLE6=It´s A Real Mutha..
EXTD=YEAR: 1988
EXTT0=
EXTT1=
EXTT2=
EXTT3=
EXTT4=
EXTT5=
EXTT6=
PLAYORDER=
